<svg xmlns="http://www.w3.org/2000/svg" xmlns:xlink="http://www.w3.org/1999/xlink" width="46" height="46" viewBox="0 0 46 46"><defs><path id="a" d="M11 34.99h23.99V11H11z"/></defs><g fill="none" fill-rule="evenodd"><path fill="transparent" d="M0 0h46v46H0z"/><mask id="b" fill="#fff"><use xlink:href="#a"/></mask><path fill="#3B5998" d="M33.666 11H12.324c-.731 0-1.324.593-1.324 1.324v21.342c0 .732.593 1.325 1.324 1.325h11.49V25.7h-3.126v-3.622h3.126v-2.67c0-3.098 1.893-4.786 4.657-4.786 1.324 0 2.462.099 2.794.143v3.238l-1.918.001c-1.503 0-1.794.715-1.794 1.763v2.311h3.585l-.466 3.621h-3.119v9.29h6.113c.732 0 1.324-.592 1.324-1.324V12.324c0-.731-.592-1.324-1.324-1.324" mask="url(#b)"/></g></svg>