<svg width="32" height="32" viewBox="0 0 32 32" xmlns="http://www.w3.org/2000/svg" xmlns:xlink="http://www.w3.org/1999/xlink"><defs><path d="m11.89 5.904 4.5 2.216c.51.25.832.762.832 1.323v5.28c0 .56-.323 1.072-.832 1.322l-4.5 2.215a1.52 1.52 0 0 1-1.342 0l-4.5-2.216a1.474 1.474 0 0 1-.826-1.327V9.443c0-.561.323-1.073.832-1.322l4.5-2.217a1.52 1.52 0 0 1 1.336 0zM5.972 9.671v5.049a.737.737 0 0 0 .412.664l4.463 2.197v-5.509L5.972 9.671zm10.5-.177-4.875 2.4v5.684l4.459-2.195a.738.738 0 0 0 .416-.66v-5.23zm-8.384-1.55-1.7.838a.748.748 0 0 0-.217.16l4.871 2.4 1.973-.972-4.927-2.426zm2.801-1.379-1.962.966 4.927 2.426 2.288-1.126a.758.758 0 0 0-.087-.05l-4.5-2.215a.76.76 0 0 0-.666 0z" id="a"/></defs><g transform="translate(4.778 4.25)"><path d="M11.222 0c6.49 0 11.75 5.26 11.75 11.75s-5.26 11.75-11.75 11.75A11.748 11.748 0 0 1 .77 17.124a.417.417 0 1 1 .741-.381 10.914 10.914 0 0 0 9.711 5.924c6.03 0 10.917-4.888 10.917-10.917C22.139 5.72 17.25.833 11.222.833c-4.05 0-7.708 2.225-9.603 5.721a.417.417 0 1 1-.733-.397A11.746 11.746 0 0 1 11.222 0z"/><path d="m.79 3.603.025.063.69 2.25 2.283-.57a.417.417 0 0 1 .266.787l-.064.021-2.667.667-.045.009-.06.003-.066-.006-.063-.016-.055-.023-.037-.02-.057-.045-.034-.035-.037-.05-.036-.072-.815-2.655a.417.417 0 0 1 .738-.364l.034.056z"/><use xlink:href="#a"/></g></svg>