<svg xmlns="http://www.w3.org/2000/svg" width="46" height="46" viewBox="0 0 46 46"><g fill="none" fill-rule="evenodd"><path fill="transparent" d="M0 0h46v46H0z"/><path fill="#FFC107" fill-rule="nonzero" d="M34.766 20.65H33.8v-.05H23v4.8h6.783c-.992 2.794-3.65 4.8-6.783 4.8a7.199 7.199 0 0 1-7.2-7.2 7.2 7.2 0 0 1 7.2-7.2c1.835 0 3.506.691 4.777 1.823l3.393-3.393A11.943 11.943 0 0 0 23 11c-6.628 0-12 5.372-12 12s5.372 12 12 12 12-5.372 12-12c0-.804-.082-1.59-.234-2.35z"/><path fill="#FF3D00" fill-rule="nonzero" d="m12.383 17.415 3.944 2.892A7.195 7.195 0 0 1 23 15.8c1.835 0 3.506.691 4.777 1.823l3.393-3.393A11.943 11.943 0 0 0 23 11c-4.61 0-8.606 2.602-10.617 6.415z"/><path fill="#4CAF50" fill-rule="nonzero" d="M23 35a11.95 11.95 0 0 0 8.046-3.115l-3.715-3.143A7.15 7.15 0 0 1 23 30.2c-3.122 0-5.77-1.99-6.769-4.767l-3.914 3.014C14.302 32.333 18.336 35 23 35z"/><path fill="#1976D2" fill-rule="nonzero" d="M34.766 20.65H33.8v-.05H23v4.8h6.783a7.232 7.232 0 0 1-2.454 3.342h.002l3.715 3.143C30.784 32.122 35 29 35 23c0-.804-.082-1.59-.234-2.35z"/></g></svg>