<svg width="24" height="24" xmlns="http://www.w3.org/2000/svg" xmlns:xlink="http://www.w3.org/1999/xlink"><defs><path d="M19.346 18.24c-1.243-.425-1.477-.511-2.047-.76-2.453-1.067-3.445-2.375-2.77-4.08.142-.36.277-.648.611-1.307l.012-.024c.279-.55.386-.772.512-1.062a5.26 5.26 0 0 0 .17-.448c.191-.575.273-1.047.381-2.173l.005-.053.005-.052c.368-3.824-.147-5.244-2.249-5.973A5.822 5.822 0 0 0 12 2.001h-.014a5.837 5.837 0 0 0-1.963.307c-2.101.73-2.616 2.15-2.247 5.974l.004.041.004.043c.108 1.137.19 1.613.382 2.193.05.153.107.302.17.448.126.29.234.512.512 1.061l.012.025c.334.658.47.947.612 1.307.674 1.705-.318 3.013-2.771 4.08-.57.249-.805.336-2.046.76-1.889.648-2.83 1.506-3.117 2.816l-.001.012c.132.037.303.076.508.118a32.46 32.46 0 0 0 2.452.369c2.318.274 5.014.445 7.505.445 2.491 0 5.186-.17 7.503-.445.99-.117 1.846-.247 2.45-.37.205-.04.375-.08.507-.116-.304-1.338-1.244-2.187-3.116-2.83zM14.304 1.364c2.647.917 3.323 2.783 2.917 7.013l-.005.052-.005.053c-.115 1.194-.208 1.731-.427 2.391-.06.182-.128.36-.203.532-.135.312-.25.55-.537 1.117l-.012.023c-.321.634-.445.898-.574 1.222-.423 1.072.217 1.916 2.24 2.796.54.235.753.314 1.972.73 2.192.753 3.399 1.855 3.785 3.65l.045.42c0 .64-1.016.846-3.878 1.185a67.263 67.263 0 0 1-7.62.452 67.32 67.32 0 0 1-7.622-.452C1.516 22.209.5 22.004.503 21.306l.05-.413c.38-1.746 1.587-2.848 3.778-3.6 1.217-.416 1.432-.495 1.971-.73 2.023-.88 2.663-1.724 2.24-2.796-.128-.324-.253-.59-.574-1.222l-.012-.025a18.808 18.808 0 0 1-.537-1.115 6.292 6.292 0 0 1-.203-.532c-.22-.666-.313-1.207-.428-2.412l-.004-.043-.004-.041c-.408-4.227.27-6.096 2.915-7.013a6.589 6.589 0 0 1 1.354-.312c.313-.038.63-.056.944-.051.8-.01 1.595.113 2.311.363z" id="a"/></defs><g fill="none" fill-rule="evenodd"><path d="M0 0h24v24H0z"/><use fill="#222" xlink:href="#a"/></g></svg>